<svg xmlns="http://www.w3.org/2000/svg" xmlns:xlink="http://www.w3.org/1999/xlink" viewBox="157 97 1439 322"><defs><linearGradient id="b" x1="536.03" x2="261.26" y1="450.88" y2="209.21" gradientUnits="userSpaceOnUse"><stop offset="0" stop-color="#115696"/><stop offset=".38" stop-color="#2878b2"/><stop offset="1" stop-color="#53b7e7"/></linearGradient><linearGradient id="a" x1="1847.02" x2="417.88" y1="358.45" y2="214.99" gradientUnits="userSpaceOnUse"><stop offset="0" stop-color="#115696"/><stop offset=".78" stop-color="#115696"/><stop offset=".86" stop-color="#2878b2"/><stop offset="1" stop-color="#53b7e7"/></linearGradient><linearGradient xlink:href="#a" id="c" x1="1848.45" x2="419.31" y1="344.23" y2="200.78"/><linearGradient xlink:href="#a" id="d" x1="1850.33" x2="421.19" y1="325.43" y2="181.97"/><linearGradient xlink:href="#a" id="e" x1="1852.54" x2="423.41" y1="303.4" y2="159.95"/><linearGradient xlink:href="#a" id="f" x1="1854.51" x2="425.37" y1="283.84" y2="140.38"/><linearGradient xlink:href="#a" id="g" x1="1856.25" x2="427.12" y1="266.45" y2="122.99"/><linearGradient xlink:href="#a" id="h" x1="1834.23" x2="405.09" y1="485.89" y2="342.43"/><linearGradient xlink:href="#a" id="i" x1="1834.63" x2="405.5" y1="481.83" y2="338.38"/><linearGradient xlink:href="#a" id="j" x1="1835.04" x2="405.9" y1="477.81" y2="334.35"/><linearGradient xlink:href="#a" id="k" x1="1835.32" x2="406.19" y1="474.95" y2="331.5"/><linearGradient xlink:href="#a" id="l" x1="1835.58" x2="406.44" y1="472.4" y2="328.95"/><linearGradient xlink:href="#a" id="m" x1="1836.12" x2="406.99" y1="466.99" y2="323.53"/><linearGradient xlink:href="#a" id="n" x1="1836.37" x2="407.23" y1="464.54" y2="321.09"/><linearGradient xlink:href="#a" id="o" x1="1836.67" x2="407.53" y1="461.55" y2="318.1"/><linearGradient xlink:href="#a" id="p" x1="1837" x2="407.86" y1="458.26" y2="314.8"/><linearGradient xlink:href="#a" id="q" x1="1837.45" x2="408.31" y1="453.76" y2="310.31"/><linearGradient xlink:href="#a" id="r" x1="1837.86" x2="408.72" y1="449.68" y2="306.22"/><linearGradient xlink:href="#a" id="s" x1="1838.15" x2="409.02" y1="446.77" y2="303.31"/><linearGradient xlink:href="#a" id="t" x1="1838.38" x2="409.24" y1="444.53" y2="301.07"/><linearGradient xlink:href="#a" id="u" x1="1838.72" x2="409.59" y1="441.09" y2="297.63"/><linearGradient xlink:href="#a" id="v" x1="1839.26" x2="410.12" y1="435.76" y2="292.3"/><linearGradient xlink:href="#a" id="w" x1="1839.63" x2="410.49" y1="432.07" y2="288.62"/><linearGradient xlink:href="#a" id="x" x1="1840.01" x2="410.87" y1="428.28" y2="284.83"/><linearGradient xlink:href="#a" id="y" x1="1840.37" x2="411.23" y1="424.71" y2="281.25"/><linearGradient xlink:href="#a" id="z" x1="1840.78" x2="411.64" y1="420.6" y2="277.14"/><linearGradient xlink:href="#a" id="A" x1="1841.1" x2="411.96" y1="417.39" y2="273.93"/><linearGradient xlink:href="#a" id="B" x1="1841.49" x2="412.35" y1="413.52" y2="270.07"/><linearGradient xlink:href="#a" id="C" x1="1841.88" x2="412.74" y1="409.65" y2="266.19"/></defs><path d="M447.72 198.48c-14.24-14.65-33.78-24.1-53.52-26.17-4.2-38.49-37.31-69.6-76.04-69.6-24.07 0-44.32 8.99-58.58 26-11.12 13.27-17.86 30.9-19.35 50.3h-.7v.05c-41.72 1.47-76.46 37.14-76.46 79.2 0 24.28 9.99 46.15 28.12 61.58 13.31 11.32 30.52 18.64 47.21 20.27 2.79 40.39 36.29 72.39 77.09 72.39h3.5c50.44 0 77.31-49.12 77.31-84.57 0-8.84-.79-26.26-6.1-43.7-3.47-11.4-9.65-22.26-17.87-31.41l-39.73-44.21c13.29-9.35 30.29-14.9 46.8-14.9h6.65c16.38 0 34 7.66 45.99 19.99 7.61 7.82 16.56 21.25 16.01 40.77v.31c0 29.54-18.76 53.48-45.5 57.01l-.23.02 1.54 21.91 2.92-.48v-.02c17.75-2.7 33.23-11.93 44.86-26.16 11.72-14.33 18.19-32.84 18.22-52.12.56-21.42-7.11-40.94-22.19-56.45Zm-186.07-11.19c0-17.54 5.18-33.39 14.59-44.61 9.99-11.92 24.48-18.22 41.92-18.22 26.4 0 49.87 21.48 54.09 47.71-24.28 1.75-47.95 12.26-64.49 28.91l-35.96 33.67c-6.43-12.27-10.14-26.63-10.14-40.66v-6.79Zm-76.84 70.97c0-15.14 6.18-29.56 17.41-40.6 10.4-10.24 24.12-16.3 37.93-16.85 1.58 24.82 11.79 49.09 28.02 66.03l32.44 36.4c-13.22 9.69-30.98 15.48-48.6 15.48h-6.6c-41.34 0-60.61-36.08-60.61-60.46Zm184.6 32.29c3.28 10.77 5.16 24.4 5.16 37.38 0 14.07-5.69 30.15-14.86 41.97-7.39 9.52-20.44 20.87-40.71 20.87h-3.5c-28.82 0-52.58-22.27-55.3-50.65 24.43-1.89 47.73-12.12 63.59-28.22l34.37-32.45-14.92-15.81-26.51 25.02-32.11-36.04 32.11-29.65 39.44 44.37c6.11 6.8 10.69 14.83 13.24 23.21" style="fill:url(#b)"/><path d="M670.2 257.95c-9.69 39.79-43.45 63.35-83.77 63.35-52.35 0-90.05-37.7-90.05-89.53s37.7-89.27 90.05-89.27c39.27 0 73.04 22.25 82.98 60.21h-23.04c-9.69-25.92-31.94-39.53-59.95-39.53-39 0-67.54 29.06-67.54 68.58s28.53 68.59 67.54 68.59c28.53 0 51.83-15.45 60.99-42.41h22.77Z" style="fill:url(#a)"/><path d="M753.97 145.12h24.35l73.82 173.56h-23.3l-16.49-40.05h-92.41l-16.23 40.05h-23.3zM805.8 260.3l-39.53-90.84-39.53 90.84z" style="fill:url(#c)"/><path d="M879.36 145.12h74.87c32.98 0 55.76 22.25 55.76 54.19 0 24.08-14.4 42.93-35.6 50.52l38.48 68.85H988l-36.39-65.18h-50.26v65.18h-21.99zm72.25 87.96c21.47 0 36.12-13.35 36.12-33.77s-14.66-33.77-36.12-33.77h-50.26v67.54z" style="fill:url(#d)"/><path d="M1049.26 145.12h26.18l64.66 129.84 64.66-129.84h26.44v173.56h-21.99V183.87l-60.99 120.94h-16.23l-60.73-120.42v134.29h-21.99V145.12Z" style="fill:url(#e)"/><path d="M1279.36 145.12h115.44v19.63h-93.45v54.97h83.51v19.63h-83.51v59.69h96.33v19.63h-118.32V145.11Z" style="fill:url(#f)"/><path d="M1434.33 145.12h22.51l111.25 140.57V145.12h21.73v173.56h-22.51l-110.99-139.53v139.53h-21.99z" style="fill:url(#g)"/><path d="M664.78 355.04h5.84v11.94h14.57v-11.94h5.84v29.54h-5.84v-12.57h-14.57v12.57h-5.84z" style="fill:url(#h)"/><path d="M703 369.88c0-8.91 6.64-15.28 15.68-15.28s15.77 6.37 15.77 15.33-6.68 15.11-15.77 15.11S703 378.85 703 369.89Zm25.36-.04c0-5.88-4.1-9.8-9.67-9.8s-9.54 3.92-9.54 9.8 4.1 9.76 9.54 9.76 9.67-3.74 9.67-9.76" style="fill:url(#i)"/><path d="M742.21 355.04h24.6v5.17h-9.45v24.37h-5.84v-24.37h-9.31z" style="fill:url(#j)"/><path d="M777.72 355.04h20.36v5.08h-14.53v6.86h13.06v4.95h-13.06v7.57h14.93v5.08h-20.77v-29.54Z" style="fill:url(#k)"/><path d="M810.65 355.04h5.84v24.46h15.28v5.08h-21.12z" style="fill:url(#l)"/><path d="M857.61 355.04h20.94v5.08h-15.11v7h11.81v5.03h-11.81v12.43h-5.84v-29.54Z" style="fill:url(#m)"/><path d="M889.73 355.04h5.84v29.54h-5.84z" style="fill:url(#n)"/><path d="M909.2 355.04h5.39l15.95 20.41v-20.41h5.75v29.54h-5.26l-16.04-20.23v20.23h-5.79z" style="fill:url(#o)"/><path d="M958.61 355.04h6.64l12.08 29.54h-6.24l-2.41-6.02h-13.55l-2.27 6.02h-6.28zm8.56 18.85-5.21-12.79-5.21 12.79h10.43Z" style="fill:url(#p)"/><path d="M987.61 355.04H993l15.95 20.41v-20.41h5.75v29.54h-5.26l-16.04-20.23v20.23h-5.79z" style="fill:url(#q)"/><path d="M1057.08 373.36c-1.38 7.22-7.4 11.67-14.79 11.67-9.05 0-15.64-6.42-15.64-15.24s6.55-15.19 15.64-15.19c7.17 0 13.23 4.28 14.66 11.23h-6.19c-1.34-3.88-4.63-5.75-8.51-5.75-5.21 0-9.45 3.92-9.45 9.71s4.23 9.8 9.45 9.8c3.97 0 7.35-2.23 8.56-6.24h6.28Z" style="fill:url(#r)"/><path d="M1068.61 355.04h5.84v29.54h-5.84z" style="fill:url(#s)"/><path d="M1096.77 355.04h6.64l12.08 29.54h-6.24l-2.41-6.02h-13.55l-2.27 6.02h-6.28zm8.56 18.85-5.21-12.79-5.21 12.79h10.43Z" style="fill:url(#t)"/><path d="M1125.77 355.04h5.84v24.46h15.28v5.08h-21.12z" style="fill:url(#u)"/><path d="M1177.01 375.45c.18 2.85 2.58 4.46 5.57 4.46 2.72 0 5.17-1.34 5.17-3.88 0-2.98-3.88-3.65-6.46-4.28-4.55-1.11-9.94-2.41-9.94-8.64 0-5.35 4.19-8.51 10.83-8.51s10.38 3.48 10.65 8.91h-6.02c-.13-2.5-2.23-3.92-4.81-3.92s-4.77 1.11-4.77 3.43c0 2.76 3.88 3.43 6.28 4.01 4.68 1.11 10.2 2.54 10.2 8.82 0 5.88-4.81 9.18-11.27 9.18-6.86 0-11.27-3.79-11.54-9.63l6.1.04Z" style="fill:url(#v)"/><path d="M1203.74 369.88c0-8.91 6.64-15.28 15.68-15.28s15.77 6.37 15.77 15.33-6.68 15.11-15.77 15.11-15.68-6.19-15.68-15.15Zm25.36-.04c0-5.88-4.1-9.8-9.67-9.8s-9.54 3.92-9.54 9.8 4.1 9.76 9.54 9.76 9.67-3.74 9.67-9.76" style="fill:url(#w)"/><path d="M1247.09 355.04h20.94v5.08h-15.11v7h11.81v5.03h-11.81v12.43h-5.84v-29.54Z" style="fill:url(#x)"/><path d="M1276.54 355.04h24.6v5.17h-9.45v24.37h-5.84v-24.37h-9.31z" style="fill:url(#y)"/><path d="M1309.11 355.04h6.02l6.37 23.17 6.28-22.73h5.79l6.33 22.73 6.28-23.17h6.02l-8.38 29.54h-7.62l-5.53-19.47-5.57 19.47h-7.58l-8.42-29.54Z" style="fill:url(#z)"/><path d="M1369.88 355.04h6.64l12.08 29.54h-6.24l-2.41-6.02h-13.55l-2.27 6.02h-6.28zm8.56 18.85-5.21-12.79-5.21 12.79h10.43Z" style="fill:url(#A)"/><path d="M1398.88 355.04h13.72c5.84 0 10.07 4.06 10.07 9.71 0 4.1-2.41 7.44-5.88 8.87l6.33 10.96h-6.64l-5.75-10.11h-5.97v10.11h-5.88zm12.97 14.35c2.85 0 4.81-1.92 4.81-4.64s-1.96-4.54-4.81-4.54h-7.09v9.18z" style="fill:url(#B)"/><path d="M1434.88 355.04h20.36v5.08h-14.53v6.86h13.06v4.95h-13.06v7.57h14.93v5.08h-20.77v-29.54Z" style="fill:url(#C)"/></svg>